<?xml version="1.0" standalone="no"?>
<!DOCTYPE svg PUBLIC "-//W3C//DTD SVG 20010904//EN"
 "http://www.w3.org/TR/2001/REC-SVG-20010904/DTD/svg10.dtd">
<svg version="1.0" xmlns="http://www.w3.org/2000/svg"
 width="1271.000000pt" height="2133.000000pt" viewBox="0 0 1271.000000 2133.000000"
 preserveAspectRatio="xMidYMid meet">
<metadata>
Created by potrace 1.16, written by Peter Selinger 2001-2019
</metadata>
<g transform="translate(0.000000,2133.000000) scale(0.100000,-0.100000)"
fill="#ff4a01" stroke="none">
<path d="M1365 21323 c-319 -40 -641 -195 -877 -422 -272 -260 -438 -595 -478
-963 -14 -136 -14 -18410 0 -18546 73 -669 565 -1215 1231 -1364 l104 -23
5010 0 5010 0 104 23 c288 65 540 199 751 399 276 263 442 600 480 975 8 81
10 767 8 2438 l-3 2325 -27 52 c-70 133 -200 198 -342 172 -105 -18 -193 -88
-240 -188 l-21 -46 -5 -2380 -5 -2380 -28 -88 c-110 -352 -389 -600 -744 -662
-75 -13 -681 -15 -4938 -15 -4257 0 -4863 2 -4938 15 -355 62 -634 310 -744
662 l-28 88 0 9270 0 9270 28 88 c110 352 389 600 744 662 72 13 237 15 1024
15 l939 0 0 -473 c0 -530 0 -530 72 -677 80 -163 253 -298 433 -335 105 -22
4835 -22 4940 0 180 37 353 172 433 335 72 147 72 147 72 677 l0 473 939 0
c787 0 952 -2 1024 -15 355 -62 634 -310 744 -662 l28 -88 5 -6235 5 -6235 33
-67 c60 -123 164 -184 302 -176 124 8 221 74 274 187 l21 46 3 6180 c2 4518 0
6210 -8 6293 -37 373 -202 709 -478 973 -202 194 -441 324 -732 397 l-105 27
-4995 1 c-2747 1 -5008 -1 -5025 -3z m7335 -1052 c0 -382 -2 -430 -16 -435
-20 -8 -4638 -8 -4658 0 -14 5 -16 53 -16 435 l0 429 2345 0 2345 0 0 -429z"/>
<path d="M6089 17760 c-792 -50 -1544 -301 -2204 -735 -231 -152 -570 -430
-624 -512 -103 -156 -42 -377 127 -460 48 -24 70 -28 137 -28 105 0 162 27
275 129 691 624 1614 976 2555 976 1761 0 3299 -1204 3730 -2918 41 -163 79
-379 97 -552 19 -184 16 -611 -6 -790 -91 -754 -359 -1397 -829 -1989 -121
-152 -410 -444 -565 -569 -1181 -957 -2778 -1138 -4129 -467 -370 183 -679
404 -987 705 -637 623 -1022 1411 -1132 2320 -25 202 -25 638 0 840 56 467
164 835 368 1262 l73 153 0 85 c0 73 -4 92 -27 137 -59 111 -146 166 -275 171
-71 4 -89 1 -136 -21 -93 -42 -130 -85 -201 -231 -231 -475 -365 -931 -433
-1476 -23 -183 -26 -776 -5 -965 115 -1043 562 -1977 1297 -2710 992 -989
2373 -1453 3770 -1264 962 129 1857 573 2550 1264 734 733 1182 1668 1297
2710 21 188 17 791 -5 975 -125 1007 -549 1898 -1242 2609 -744 763 -1709
1229 -2767 1336 -184 18 -535 26 -709 15z"/>
<path d="M5839 16350 c-187 -29 -360 -155 -443 -324 -66 -134 -66 -141 -66
-971 l0 -745 -758 0 c-723 0 -762 -1 -836 -20 -43 -11 -105 -34 -139 -52 -85
-45 -193 -155 -239 -243 -68 -130 -68 -134 -68 -707 0 -564 1 -571 62 -698 43
-89 169 -215 258 -259 129 -63 101 -61 947 -61 l772 0 3 -782 c3 -778 3 -783
25 -848 69 -202 246 -364 442 -406 96 -20 1016 -20 1112 0 196 42 373 204 442
406 22 65 22 70 25 848 l3 782 772 0 c846 0 818 -2 947 61 89 44 215 170 258
259 61 127 62 134 62 698 0 573 0 577 -68 707 -46 88 -154 198 -239 243 -34
18 -96 41 -139 52 -74 19 -113 20 -836 20 l-758 0 0 745 c0 831 0 837 -66 972
-68 138 -193 245 -349 300 l-80 28 -495 2 c-272 0 -520 -3 -551 -7z m901
-1437 c0 -871 1 -887 53 -989 53 -103 148 -185 262 -224 56 -19 84 -20 897
-20 l838 0 0 -390 0 -390 -823 0 c-707 0 -831 -2 -882 -15 -171 -45 -303 -186
-334 -359 -7 -40 -11 -331 -11 -868 l0 -808 -385 0 -385 0 0 808 c0 537 -4
828 -11 868 -31 173 -163 314 -334 359 -51 13 -175 15 -882 15 l-823 0 0 390
0 390 838 0 c813 0 841 1 897 20 158 54 274 188 305 349 6 34 10 354 10 862
l0 809 385 0 385 0 0 -807z"/>
<path d="M2335 7560 c-212 -43 -386 -205 -440 -411 -22 -81 -22 -1209 0 -1292
49 -190 212 -353 402 -402 50 -13 547 -15 4058 -15 4404 0 4046 -5 4178 61 89
46 197 156 241 249 19 40 40 96 46 124 7 35 10 254 8 657 -3 599 -3 605 -26
664 -12 33 -43 91 -68 128 -72 105 -150 164 -283 216 l-66 26 -4005 1 c-2203
1 -4023 -2 -4045 -6z m7865 -1060 l0 -430 -3845 0 -3845 0 0 430 0 430 3845 0
3845 0 0 -430z"/>
<path d="M2360 4189 c-222 -32 -409 -199 -465 -415 -13 -49 -15 -152 -15 -652
l0 -593 25 -76 c61 -181 198 -314 380 -370 58 -17 213 -18 4070 -18 3857 0
4012 1 4070 18 182 56 319 189 380 370 l25 76 0 593 c0 658 0 652 -65 778 -61
114 -188 224 -308 264 -27 9 -79 21 -115 26 -83 12 -7901 11 -7982 -1z m7840
-1059 l0 -430 -3845 0 -3845 0 0 430 0 430 3845 0 3845 0 0 -430z"/>
</g>
</svg>
